<?xml version="1.0" standalone="no"?>
<!DOCTYPE svg PUBLIC "-//W3C//DTD SVG 20010904//EN"
 "http://www.w3.org/TR/2001/REC-SVG-20010904/DTD/svg10.dtd">
<svg version="1.0" xmlns="http://www.w3.org/2000/svg"
 width="514.000000pt" height="514.000000pt" viewBox="0 0 514.000000 514.000000"
 preserveAspectRatio="xMidYMid meet">
<metadata>
Created by potrace 1.14, written by Peter Selinger 2001-2017
</metadata>
<g transform="translate(0.000000,514.000000) scale(0.100000,-0.100000)"
fill="#000000" stroke="none">
<path d="M1595 5091 c-254 -70 -421 -296 -410 -553 6 -134 45 -239 127 -342
21 -27 37 -54 35 -60 -2 -6 -17 -54 -32 -106 -33 -113 -198 -678 -225 -770
-43 -147 -203 -697 -210 -725 -5 -16 -65 -223 -134 -460 -70 -236 -164 -560
-211 -720 -46 -159 -91 -311 -98 -336 -27 -88 0 -163 66 -190 47 -20 76 -15
277 40 102 28 189 51 195 51 6 0 10 -93 10 -263 1 -250 2 -266 24 -327 109
-301 458 -413 713 -230 60 43 128 125 154 186 38 87 41 133 41 513 0 204 2
374 4 375 8 8 303 86 307 81 2 -2 6 -39 7 -82 3 -90 16 -143 53 -221 31 -66
118 -156 188 -194 219 -119 496 -44 624 168 57 95 69 160 69 389 l1 201 103
26 c56 15 192 51 302 81 l200 53 45 -37 c179 -146 422 -172 625 -66 82 43 182
145 227 232 56 108 77 249 54 372 -75 403 -167 686 -330 1012 -384 768 -1051
1385 -1848 1707 -147 60 -291 106 -457 149 -261 68 -377 78 -496 46z m238
-266 c340 -65 689 -194 996 -368 90 -51 237 -143 251 -157 3 -3 28 -21 55 -40
54 -37 165 -124 230 -179 90 -78 326 -323 407 -424 291 -365 511 -804 623
-1245 86 -342 84 -448 -11 -546 -123 -127 -335 -109 -445 37 -38 51 -54 92
-64 167 -12 90 -78 338 -122 460 -221 613 -662 1127 -1238 1443 -55 30 -125
65 -155 78 -30 12 -59 26 -65 30 -27 19 -353 128 -433 144 -225 45 -254 56
-321 123 -152 152 -98 404 103 474 63 21 90 22 189 3z m-148 -840 c515 -98
1013 -381 1350 -766 77 -88 95 -110 95 -118 0 -4 -19 -18 -42 -31 -71 -38
-170 -147 -211 -230 -187 -382 80 -822 498 -822 91 0 98 1 170 21 22 6 45 10
50 10 9 0 37 -119 30 -127 -3 -3 -143 -43 -434 -121 -226 -62 -256 -75 -284
-126 -7 -13 -11 -115 -12 -290 -1 -256 -3 -272 -23 -312 -69 -134 -275 -134
-343 0 -20 38 -22 59 -24 218 -2 197 -8 222 -60 258 -46 31 -84 29 -225 -9
-63 -18 -122 -33 -130 -35 -68 -15 -361 -100 -382 -111 -61 -32 -62 -35 -63
-524 -1 -487 0 -472 -62 -534 -33 -33 -61 -45 -118 -51 -77 -8 -146 28 -186
98 -23 42 -23 43 -24 397 -1 380 -1 382 -53 427 -35 30 -80 36 -143 19 -30 -8
-107 -28 -172 -46 -65 -17 -121 -29 -124 -27 -5 6 66 258 76 269 4 4 22 3 41
-2 52 -16 187 -13 255 5 245 64 423 285 428 532 5 232 -115 430 -321 530 -42
20 -78 38 -80 39 -2 1 22 89 53 195 31 107 87 300 125 429 37 129 84 290 104
358 20 67 52 177 71 245 30 103 51 173 70 235 5 15 4 15 100 -3z m1704 -1299
c44 -88 94 -205 113 -259 37 -109 38 -107 -37 -129 -188 -55 -377 87 -379 282
0 73 13 114 58 178 37 53 133 117 153 101 7 -6 48 -84 92 -173z m-2242 -456
c57 -33 92 -73 122 -141 78 -177 -43 -383 -239 -406 -26 -3 -64 -3 -82 1 l-35
6 64 218 c101 343 103 352 111 352 4 0 30 -14 59 -30z"/>
<path d="M1913 3435 c-209 -48 -356 -229 -356 -440 0 -181 90 -327 250 -408
298 -152 653 67 653 403 0 288 -270 508 -547 445z m181 -282 c56 -29 96 -96
96 -161 0 -50 -34 -115 -78 -149 -32 -24 -46 -28 -103 -28 -53 0 -72 5 -102
25 -76 52 -104 158 -63 238 18 36 72 80 113 92 36 11 98 3 137 -17z"/>
<path d="M2211 2220 c-90 -30 -140 -100 -141 -194 0 -90 54 -165 139 -194 160
-55 315 99 261 258 -39 115 -146 169 -259 130z"/>
</g>
</svg>
