<?xml version="1.0" standalone="no"?>
<!DOCTYPE svg PUBLIC "-//W3C//DTD SVG 20010904//EN"
 "http://www.w3.org/TR/2001/REC-SVG-20010904/DTD/svg10.dtd">
<svg version="1.0" xmlns="http://www.w3.org/2000/svg"
 width="2138.000000pt" height="2138.000000pt" viewBox="0 0 2138.000000 2138.000000"
 preserveAspectRatio="xMidYMid meet">
<metadata>
Created by potrace 1.14, written by Peter Selinger 2001-2017
</metadata>
<g transform="translate(0.000000,2138.000000) scale(0.100000,-0.100000)"
fill="#000000" stroke="none">
<path d="M6270 21345 c-496 -85 -911 -425 -1068 -875 -38 -108 -656 -2459
-649 -2466 3 -3 101 -10 219 -15 3034 -130 5716 -1006 7888 -2576 2147 -1552
3702 -3714 4574 -6360 405 -1230 666 -2638 736 -3968 6 -115 14 -230 16 -254
5 -41 7 -43 32 -38 72 15 2416 669 2472 690 203 76 405 220 542 384 126 151
198 279 258 462 98 295 94 512 -21 1246 -471 3017 -1827 5880 -3903 8240 -257
291 -385 426 -765 805 -362 362 -660 638 -976 905 -2407 2040 -5272 3334
-8310 3755 -559 77 -864 96 -1045 65z"/>
<path d="M4187 16639 c-9 -30 -948 -3598 -2089 -7929 l-2073 -7875 0 -145 c1
-138 2 -149 32 -226 77 -203 228 -350 428 -416 60 -20 90 -23 210 -23 l140 0
7905 2193 c4348 1206 7913 2195 7923 2198 20 6 20 -13 -4 469 -28 564 -89
1128 -185 1705 -568 3429 -2322 6237 -5004 8015 -1767 1171 -3889 1865 -6240
2039 -231 18 -516 32 -821 42 l-207 6 -15 -53z m3430 -3648 c539 -110 955
-540 1047 -1080 32 -190 16 -434 -41 -616 -107 -338 -346 -622 -660 -783 -211
-107 -370 -146 -608 -146 -230 0 -394 38 -590 137 -355 177 -603 490 -702 884
-25 99 -28 124 -28 303 0 179 3 204 28 303 141 561 582 946 1167 1021 77 9
288 -3 387 -23z m4294 -4327 c538 -92 965 -505 1081 -1047 31 -145 31 -379 0
-524 -111 -516 -484 -900 -1001 -1031 -97 -24 -123 -27 -301 -27 -178 0 -204
3 -301 27 -288 73 -525 217 -702 428 -157 186 -249 372 -299 603 -31 145 -31
379 0 524 116 539 541 952 1077 1047 111 20 330 20 446 0z m-6341 -1999 c412
-67 785 -344 974 -723 153 -305 178 -678 70 -1002 -156 -467 -555 -810 -1040
-895 -111 -19 -327 -19 -438 0 -485 85 -884 428 -1040 895 -88 264 -89 565 -1
827 69 207 169 367 325 523 198 199 442 326 715 374 109 19 319 19 435 1z"/>
</g>
</svg>
